PathFileType	4	(X/Y/Z)	 s11c0001.trc
DataRate	CameraRate	NumFrames	NumMarkers	Units	OrigDataRate	OrigDataStartFrame	OrigNumFrames
200	200	5	49	mm	200	751	2000
Frame#	Time	racr			lacr			c7			jug			rlel			rdr			llel			ldr			s2			lic			ric			lasi			rasi			rpsi			lpsi			rgt			lgt			rth1			rth2			rth3			rth4			rlfc			rmfc			rsh1			rsh2			rsh3			rsh4			rlmal			rmmal			rcal			rtoe			rmt5			rmt1			lth1			lth2			lth4			lth3			llfc			lmfc			llmal			lmmal			lcal			lmt1			lmt5			lsh1			lsh2			lsh3			lsh4			ltoe			
		X1	Y1	Z1	X2	Y2	Z2	X3	Y3	Z3	X4	Y4	Z4	X5	Y5	Z5	X6	Y6	Z6	X7	Y7	Z7	X8	Y8	Z8	X9	Y9	Z9	X10	Y10	Z10	X11	Y11	Z11	X12	Y12	Z12	X13	Y13	Z13	X14	Y14	Z14	X15	Y15	Z15	X16	Y16	Z16	X17	Y17	Z17	X18	Y18	Z18	X19	Y19	Z19	X20	Y20	Z20	X21	Y21	Z21	X22	Y22	Z22	X23	Y23	Z23	X24	Y24	Z24	X25	Y25	Z25	X26	Y26	Z26	X27	Y27	Z27	X28	Y28	Z28	X29	Y29	Z29	X30	Y30	Z30	X31	Y31	Z31	X32	Y32	Z32	X33	Y33	Z33	X34	Y34	Z34	X35	Y35	Z35	X36	Y36	Z36	X37	Y37	Z37	X38	Y38	Z38	X39	Y39	Z39	X40	Y40	Z40	X41	Y41	Z41	X42	Y42	Z42	X43	Y43	Z43	X44	Y44	Z44	X45	Y45	Z45	X46	Y46	Z46	X47	Y47	Z47	X48	Y48	Z48	X49	Y49	Z49	
751	3.7550	485.935693	1571.798917	591.898636	456.865428	1597.131398	178.350086	390.407312	1620.156949	385.278360	554.528127	1561.905472	367.336277	488.747197	1314.250483	743.466203	620.511721	1088.970825	890.216567	429.223214	1302.294695	47.107484	555.623003	1064.258611	-130.434296	343.867657	1075.696604	393.069667	513.390351	1163.083823	175.768556	556.547041	1152.213800	566.425658	579.893504	1109.497570	205.108708	612.133340	1112.296495	520.735104	365.718048	1130.548000	447.672642	352.432440	1127.503019	344.979786	509.344192	960.921222	588.506261	445.433999	992.193647	174.083004	518.823585	833.348627	585.615333	538.890550	750.403585	560.206079	514.692599	668.526429	541.835871	572.774896	753.077888	547.681729	509.600225	562.772806	516.439140	504.388189	545.560686	396.809928	464.066260	413.911257	538.828336	478.932187	327.560639	524.929359	448.863708	244.970531	524.771497	505.132446	327.210682	495.847962	431.596862	108.668103	513.406804	463.398310	122.721105	425.907201	386.763652	80.305815	459.304644	667.399347	91.290201	518.992177	591.012232	54.248466	573.976228	609.856792	58.575174	458.454483	474.324076	859.098589	154.102751	493.558829	776.929242	168.827183	529.859822	775.549982	174.289717	467.282291	692.466325	182.977760	462.025660	550.394411	212.893478	475.624709	540.254807	339.020686	405.949083	117.535773	223.469002	436.861470	133.711105	297.587004	369.155844	68.625028	259.881648	592.923185	56.056046	292.025979	569.978999	55.301763	174.944150	424.542244	427.519844	192.023288	442.859371	343.632263	199.146177	416.923609	258.979403	202.716722	474.645777	343.957298	221.579698	660.260704	95.471960	243.958984	
752	3.7600	485.981484	1571.801300	591.935596	456.875468	1597.116357	178.358544	390.431870	1620.158750	385.268040	554.536182	1561.910870	367.346304	488.796722	1314.241790	743.472517	620.584696	1088.953796	890.186293	429.210083	1302.272413	47.126433	555.575046	1064.245283	-130.437281	343.879809	1075.695591	393.106041	513.403021	1163.052525	175.787383	556.575159	1152.217163	566.417439	579.906079	1109.482313	205.118644	612.152506	1112.278726	520.749172	365.743640	1130.544754	447.682240	352.456543	1127.501519	344.976733	509.372884	960.915799	588.513033	445.438910	992.185592	174.104078	518.829559	833.330477	585.617039	538.916109	750.413584	560.196978	514.715990	668.532943	541.832734	572.781580	753.076299	547.676525	509.614638	562.768610	516.440387	504.421169	545.580770	396.820687	464.064586	413.900100	538.830383	478.931896	327.559552	524.930493	448.882787	244.980817	524.766377	505.130475	327.212412	495.861129	431.580078	108.672330	513.421359	463.409388	122.727998	425.913230	386.784173	80.287048	459.283148	667.406586	91.332030	518.971320	590.998937	54.259404	573.969418	609.853576	58.573533	458.449217	474.326594	859.099549	154.084691	493.573363	776.925698	168.824019	529.874327	775.552409	174.284838	467.268048	692.478920	182.981249	462.020153	550.392490	212.889129	475.650868	540.236426	339.010120	405.966922	117.530233	223.481660	436.863017	133.720724	297.596639	369.137703	68.629373	259.883479	592.906077	56.062897	292.021223	569.982734	55.295907	174.937081	424.549833	427.526674	192.021729	442.842563	343.625801	199.146330	416.930413	258.978864	202.718581	474.655494	343.956466	221.585295	660.269806	95.488268	243.978861	
753	3.7650	486.045474	1571.782841	591.921865	456.851742	1597.093750	178.369445	390.444580	1620.146492	385.324595	554.544334	1561.897047	367.342767	488.853421	1314.244894	743.466586	620.670074	1088.953433	890.166570	429.202185	1302.262868	47.156154	555.504270	1064.234359	-130.431895	343.948341	1075.688439	393.074747	513.418608	1163.063040	175.786874	556.603388	1152.206681	566.416517	579.937254	1109.477022	205.120637	612.185083	1112.289243	520.731953	365.786298	1130.546710	447.705183	352.455973	1127.500176	344.998784	509.401267	960.912956	588.519934	445.442729	992.191243	174.106455	518.855201	833.330402	585.617541	538.943943	750.408017	560.203627	514.740010	668.540139	541.854325	572.793205	753.064325	547.675978	509.615761	562.770289	516.426777	504.386965	545.578023	396.798300	464.066771	413.905093	538.840572	478.907292	327.547566	524.911997	448.868728	244.975807	524.777446	505.138333	327.197281	495.837818	431.580723	108.642790	513.417683	463.429075	122.744678	425.921319	386.767769	80.299717	459.298119	667.406694	91.329175	518.972101	591.037729	54.241894	573.977777	609.865375	58.568059	458.456719	474.328629	859.106105	154.106581	493.573919	776.923918	168.826425	529.859688	775.549391	174.289696	467.266986	692.484629	182.983426	462.035072	550.399758	212.884685	475.646499	540.256388	339.035080	405.965631	117.539399	223.474563	436.858487	133.719394	297.592836	369.149299	68.623921	259.894860	592.910056	56.054301	292.020000	569.975408	55.284868	174.937720	424.543219	427.526054	192.024210	442.864943	343.639305	199.130990	416.930149	258.970752	202.703009	474.664704	343.954624	221.582848	660.257553	95.469734	243.975824	
754	3.7700	486.083314	1571.780407	591.932043	456.832426	1597.112702	178.357032	390.468397	1620.150835	385.317534	554.544626	1561.894109	367.340792	488.896680	1314.209650	743.464864	620.768583	1088.965606	890.164326	429.161653	1302.251540	47.186368	555.446834	1064.223446	-130.442089	343.943290	1075.703739	393.103596	513.427533	1163.052900	175.775177	556.630580	1152.209367	566.406165	579.924049	1109.472960	205.112268	612.219657	1112.296674	520.735752	365.813381	1130.537495	447.687654	352.485952	1127.491203	345.015542	509.430578	960.907265	588.526085	445.446128	992.199802	174.107661	518.888648	833.318846	585.606513	538.957138	750.405538	560.215101	514.736312	668.509958	541.852227	572.820241	753.062889	547.677065	509.628001	562.768406	516.432388	504.386308	545.561246	396.811072	464.074468	413.910389	538.837771	478.972425	327.572560	524.943281	448.878940	244.996636	524.769502	505.152456	327.203430	495.866732	431.614098	108.665947	513.427629	463.406996	122.741160	425.918803	386.759312	80.289837	459.285186	667.393668	91.323954	518.974500	591.018669	54.238263	573.976719	609.859709	58.561053	458.460651	474.328553	859.101855	154.099490	493.556102	776.935833	168.803210	529.862897	775.535693	174.318124	467.283966	692.479458	182.976610	462.034400	550.391674	212.898080	475.648483	540.227508	339.034991	405.956139	117.525382	223.491838	436.862757	133.721641	297.600722	369.156355	68.618869	259.891718	592.911695	56.050972	292.002944	569.976318	55.309534	174.935914	424.549840	427.530662	192.038377	442.862542	343.624268	199.140511	416.923572	258.974439	202.714361	474.655301	343.972938	221.562791	660.264112	95.464082	243.985853	
755	3.7750	486.120535	1571.779160	591.941182	456.796135	1597.110586	178.366237	390.487640	1620.140645	385.339816	554.553507	1561.904854	367.323940	488.970083	1314.218377	743.453840	620.854529	1088.955860	890.147378	429.140936	1302.239017	47.188680	555.387277	1064.213292	-130.458379	343.939916	1075.713438	393.134481	513.402088	1163.050713	175.788072	556.709498	1152.210717	566.432695	579.908891	1109.480065	205.111349	612.235318	1112.258555	520.711640	365.828956	1130.548665	447.728127	352.496219	1127.505224	345.032617	509.461719	960.912565	588.546910	445.457761	992.186282	174.107220	518.910353	833.322757	585.617420	538.981344	750.401792	560.200366	514.749018	668.504592	541.852653	572.829065	753.061648	547.662405	509.621935	562.763913	516.435027	504.435176	545.575404	396.789843	464.067994	413.906201	538.829077	478.916395	327.548249	524.916255	448.887083	244.982714	524.776310	505.147516	327.215936	495.854923	431.605268	108.660826	513.414240	463.416772	122.750141	425.897148	386.753851	80.314813	459.284159	667.379541	91.321225	518.987613	591.018662	54.238253	573.976713	609.860890	58.566923	458.454682	474.327675	859.100389	154.105633	493.571135	776.937524	168.805964	529.848013	775.530703	174.289770	467.270800	692.479452	183.005415	462.022227	550.407126	212.886333	475.674949	540.235581	339.019154	405.959015	117.539615	223.489950	436.864612	133.724182	297.590055	369.148318	68.624111	259.889351	592.910067	56.061186	292.020425	569.977997	55.275739	174.934721	424.530191	427.528442	192.019067	442.864519	343.635553	199.139548	416.926851	258.977833	202.718479	474.645463	343.958496	221.577296	660.270731	95.469086	243.973579	
